<svg viewBox="0 0 26 27" fill="none">
<path fill-rule="evenodd" clip-rule="evenodd" d="M20.6336 6.31097C20.6336 6.80679 20.5685 7.25856 20.448 7.6688C25.5512 10.6678 22.9243 20.425 22.1553 22.9104C22.1341 22.979 22.0162 22.9526 22.0184 22.8809C22.0434 22.0557 21.915 20.8983 21.3489 19.7842C21.3659 19.9307 21.3746 20.0797 21.3746 20.2308C21.3746 22.352 19.6557 24.0715 17.5353 24.0715C15.4149 24.0715 13.696 22.352 13.696 20.2308C13.696 19.8372 13.7551 19.4575 13.8651 19.1C13.8344 19.0919 13.8021 19.0837 13.7685 19.0754C13.5461 19.0208 13.3125 18.9778 13.1568 18.9778C13.0018 18.9778 12.7775 19.0198 12.566 19.0731C12.5271 19.0829 12.49 19.0927 12.4555 19.1022C12.5651 19.4592 12.624 19.8383 12.624 20.2312C12.624 22.3523 10.9051 24.0719 8.78472 24.0719C6.82415 24.0719 5.20681 22.6018 4.97413 20.7034C4.57854 22.2802 4.56924 23.9897 4.63748 25.9407C4.63962 26.0017 4.56111 26.0284 4.53063 25.9755C2.82232 23.0091 1.24842 16.8656 2.38651 12.3358C3.40492 8.28227 6.25787 6.32881 8.04941 5.65901C8.37557 2.47988 11.0607 0 14.3249 0C17.8091 0 20.6336 2.82552 20.6336 6.31097ZM7.14073 16.7594C7.63907 16.5228 8.19644 16.3904 8.78472 16.3904C10.1608 16.3904 11.3678 17.1147 12.0456 18.2029C12.1184 18.181 12.2173 18.1527 12.3299 18.1243C12.555 18.0676 12.8761 17.9997 13.1568 17.9997C13.4368 17.9997 13.7667 18.0682 13.9988 18.1252C14.1066 18.1517 14.2026 18.178 14.2764 18.1993C14.9546 17.1129 16.1606 16.3901 17.5353 16.3901C17.6851 16.3901 17.8329 16.3987 17.9782 16.4154C16.6567 14.8504 16.1414 12.6657 15.955 11.2919C11.5409 13.2028 8.812 14.9517 7.14073 16.7594ZM20.1899 20.2308C20.1899 21.698 19.001 22.8867 17.5353 22.8867C16.0696 22.8867 14.8807 21.698 14.8807 20.2308C14.8807 18.7636 16.0696 17.5748 17.5353 17.5748C19.001 17.5748 20.1899 18.7636 20.1899 20.2308ZM11.4393 20.2312C11.4393 21.6984 10.2504 22.8871 8.78472 22.8871C7.31904 22.8871 6.13014 21.6984 6.13014 20.2312C6.13014 18.7639 7.31904 17.5752 8.78472 17.5752C10.2504 17.5752 11.4393 18.7639 11.4393 20.2312Z" fill="#600DFF"/>
</svg>
