<svg viewBox="0 0 2447 1060" fill="none"><path fill="#FFFFFF" d="M501.87 580.05c0 34.5 30.13 36.27 44.75 18.58 12.85-15.04 17.72-34.5 17.72-53.08 0-42.02-21.71-73.42-62.92-84.48l.45 118.98Zm0 123.85c-13.74.89-56.72-3.54-62.92-45.11-10.19-60.6-10.19-197.72-10.19-197.72-42.98 12.82-53.61 51.3-59.81 77.85-10.64 53.96 6.2 115.44 11.07 134.9 4.88 19.47-31.01 15.04-57.15 13.27-14.63-1.32-26.59-3.53-34.12-30.96-13.3-47.77-11.52-98.64-7.98-118.54C298.5 429.22 362.3 356.24 468.2 356.24c105.9 0 187.42 72.98 187.42 177.81 2.66 96.87-46.08 169.85-153.74 169.85ZM465.62 321.43c-41.16 0-74.84-33.62-74.84-74.72 0-41.09 33.68-74.71 74.84-74.71 41.17 0 74.84 33.62 74.84 74.71a74.73 74.73 0 0 1-74.84 74.72ZM934.88 320.02h-93.6c-6.17 0-10.28-4.12-10.28-10.3v-57.66c0-6.17 4.11-10.3 10.28-10.3h296.21c6.17 0 10.28 4.13 10.28 10.3v57.67c0 6.17-4.11 10.3-10.28 10.3h-93.59c-6.18 0-10.29 4.11-10.29 10.29v302.72c0 6.18-4.11 10.3-10.28 10.3h-67.88c-6.18 0-10.29-4.12-10.29-10.3V330.32c0-6.18-4.11-10.3-10.28-10.3ZM1139.55 367.39h63.76c6.18 0 10.29 4.12 10.29 10.3v33.98h1.03c9.25-16.48 19.54-29.87 31.88-38.1 12.34-8.24 27.77-12.36 47.31-12.36h14.4c5.14 0 9.26 1.03 13.37 2.06v63.84c0 6.18-6.17 11.33-12.34 10.3-6.17-1.03-4.12 0-5.14 0-6.18 0-12.35-1.03-18.52-1.03-16.45 0-28.79 2.06-38.05 7.2-9.26 4.12-16.46 11.33-21.6 18.54-5.14 8.24-8.23 17.5-10.28 28.83-2.06 11.33-2.06 23.68-2.06 37.07v105.02c0 6.18-4.11 10.3-10.29 10.3h-63.76c-6.17 0-10.29-4.12-10.29-10.3V378.72c0-6.18 4.12-10.3 10.29-10.3v-1.03ZM1434.72 367.39h-63.77a10.29 10.29 0 0 0-10.28 10.3V632c0 5.69 4.6 10.3 10.28 10.3h63.77c5.68 0 10.28-4.61 10.28-10.3V377.7c0-5.7-4.6-10.3-10.28-10.3ZM1525.22 213.97h63.77c6.17 0 10.28 4.12 10.28 10.3v171.95h1.03c10.29-13.39 22.63-22.65 38.06-27.8a155.04 155.04 0 0 1 49.36-8.24c17.49 0 37.03 4.12 52.46 12.36 15.42 8.24 28.79 18.53 39.08 32.95 10.28 13.38 19.54 28.83 24.68 46.33 6.17 17.5 9.26 36.04 9.26 55.6 0 19.57-3.09 40.16-9.26 57.67-6.17 17.5-15.43 31.91-27.77 45.3-12.34 12.36-25.71 22.65-43.19 29.86-16.46 7.2-34.97 10.3-55.54 10.3s-19.54-1.03-27.77-4.12-16.46-6.18-23.66-10.3c-7.19-4.12-13.37-9.26-19.54-13.38-5.14-5.15-10.28-10.3-13.37-15.45h-1.03v25.74c0 6.18-4.11 10.3-10.28 10.3h-57.59c-6.18 0-10.29-4.12-10.29-10.3V224.27c0-6.18 4.11-10.3 10.29-10.3h1.02Zm67.88 290.37c0 20.59 6.17 37.06 17.49 50.45 12.34 12.36 28.8 19.56 50.39 19.56 21.6 0 38.06-6.18 50.4-19.56 12.34-12.36 17.48-29.86 17.48-50.45 0-20.6-6.17-37.07-17.48-50.46-12.34-12.35-28.8-19.56-50.4-19.56-21.59 0-38.05 6.18-50.39 19.56-12.34 12.36-17.49 29.86-17.49 50.45ZM2036.38 474.47c17.48 0 25.71-23.68 11.31-36.04-12.34-10.3-27.77-14.41-42.16-14.41-27.77 0-49.37 11.33-60.69 35-3.08 7.22 1.03 15.45 9.26 15.45h82.28Zm94.62 0c0 10.3-3.09 45.3-36 49.43-37.02 6.18-109.02 8.24-140.9 8.24-31.88 0-13.37 9.26-8.23 15.44 13.37 21.62 37.03 27.8 54.51 31.92 43.2 8.24 106.96-9.27 106.96-9.27 13.38 0 12.35 24.71 10.29 45.3 0 11.33-3.09 21.63-24.68 26.78-38.06 10.3-78.17 9.27-93.6 6.18-86.39-14.42-143.98-64.87-143.98-148.28 0-83.4 57.59-148.27 140.9-148.27 77.14-3.08 134.73 36.04 134.73 121.5M1359.64 308.7v-53.54c0-10.3 6.17-14.42 14.4-14.42h59.65c10.29 0 14.4 6.18 14.4 14.42v53.54c0 10.3-5.14 14.42-14.4 14.42h-59.65c-8.23 0-14.4-4.12-14.4-14.42ZM1866.36 730.21h20.37a5.74 5.74 0 0 0 5.74-5.72v-18.76a5.74 5.74 0 0 0-5.74-5.73h-20.37a5.74 5.74 0 0 0-5.74 5.73v18.76a5.74 5.74 0 0 0 5.74 5.72ZM1669.74 778.52c7.12 0 10.28-9.67 4.74-14.41-4.94-4.15-11.07-5.73-17.21-5.73-13.45 0-23.54 6.91-27.1 20.14h39.57Zm38.77 0c.19 4.35-1.19 18.17-14.64 20.15-19.58 3.36-63.7 3.36-63.7 3.36 4.16 13.82 16.62 17.18 25.13 19.15 17.4 3.36 43.51-3.55 43.51-3.55 5.34 0 4.95 10.07 4.16 18.36-.4 4.54-1.19 8.5-9.89 11.06-15.43 4.34-31.85 3.75-38.18 2.57-35.01-5.73-58.35-26.27-58.35-60.23 0-33.97 23.54-60.23 57.36-60.23 31.06-.8 54.4 15 54.6 49.37ZM1755.19 744.04h14.83c3.56 0 5.15 2.17 5.15 5.13v19.95c0 3.55-1.98 5.13-5.15 5.13h-6.92a7.72 7.72 0 0 0-7.71 7.7v63.4c0 3.55-1.98 5.13-5.15 5.13h-21.56c-3.56 0-4.94-2.18-4.94-5.14V744.63c0-28.83 17.21-44.63 48.85-44.63a4.39 4.39 0 0 1 4.36 4.34v15.4c0 4.55-.99 8.1-6.33 10.28-1.78.59-3.56 1.18-5.34 1.38-4.36.6-8.91 3.75-10.09 12.64ZM1824.02 744.04h14.84c3.56 0 5.14 2.17 5.14 5.13v19.95c0 3.55-1.97 5.13-5.14 5.13h-7.12a7.72 7.72 0 0 0-7.72 7.7v63.4c0 3.55-1.97 5.13-5.14 5.13h-21.56c-3.56 0-4.94-2.18-4.94-5.14V744.63c0-28.83 17.2-44.63 48.85-44.63a4.39 4.39 0 0 1 4.36 4.34v15.4c0 4.55-.99 8.1-6.33 10.28-1.78.59-3.56 1.18-5.34 1.38-4.16.6-8.71 3.75-9.9 12.64ZM1860.62 845.34v-96.17c0-3.55 1.98-5.13 5.14-5.13h21.56c3.56 0 5.15 1.97 5.15 5.13v96.17c0 3.56-1.98 5.14-5.15 5.14h-21.56c-3.16 0-5.14-1.58-5.14-5.14ZM2100.36 732.58c2.18-.6 4.75-.6 7.72-.6h16.61c4.16 0 5.54 2.37 4.55 6.72-6.92 21.13-14.04 42.26-20.97 63.39-5.14 15.8-10.48 31.6-15.62 47.59-4.75 14.22-5.15 35.54-23.74 37.71-4.75.6-21.17 2.18-21.96-5.52-.19-1.19.2-2.38.6-3.56 4.35-12.44 8.5-25.08 12.66-37.52l-38.58-102.3c-1.58-3.55.6-6.31 4.16-6.31 4.75 0 9.49-.2 14.04-.2 4.35 0 9.3-.4 13.45 1.78 4.95 2.57 5.15 5.73 6.73 10.66a706.85 706.85 0 0 1 4.55 13.83s9.1 28.04 12.26 36.73c3.96-12.05 7.72-22.91 11.48-34.76 1.78-5.33 4.54-13.63 5.73-19.15.99-4.35 1.58-7.31 6.33-8.5ZM1979.9 762.52c-29.48-3.15-41.94 9.88-41.94 26.07 0 19.75 10.29 30.41 39.56 30.41 9.1 0 17.21-4.14 25.72-6.71.79-.2 1.38-.4 2.17-.2a3.62 3.62 0 0 1 2.58 2.17c2.37 4.74 1.58 11.46.98 16.6-.39 3.35-.79 9.67-3.75 11.84-9.5 7.1-21.76 8.1-36.4 7.7-36.59-.99-62.71-23.7-62.71-59.64 0-32.78 23.94-61.21 66.47-61.21 15.62 0 23.14 1.18 30.06 5.33 3.17 1.97 4.16 5.13 4.75 8.49.79 5.33 1.39 10.86 1.39 16.2 0 3.15-.2 8.29-3.96 9.27-2.57.6-4.94-.59-7.32-1.58-4.94-2.56-11.87-4.14-17.6-4.74ZM1453.8 804.7c0 7.3-1.04 13.86-3.13 19.7-2.03 5.82-4.79 10.72-8.28 14.68a38.4 38.4 0 0 1-12.19 9.3 34.57 34.57 0 0 1-14.61 3.04c-4.94 0-9.27-.6-12.97-1.8a58.7 58.7 0 0 1-10.93-4.68l-.94 4.06H1377V727.44h14.69v43.43a60.36 60.36 0 0 1 13.12-8.28 36.2 36.2 0 0 1 15.63-3.28c10.31 0 18.44 3.96 24.37 11.88 5.99 7.91 8.99 19.09 8.99 33.51Zm-15.16.4c0-10.42-1.72-18.31-5.16-23.68-3.43-5.41-8.98-8.12-16.64-8.12-4.27 0-8.59.93-12.96 2.8a52.82 52.82 0 0 0-12.19 7.12v50a64.19 64.19 0 0 0 10.7 3.9c3.02.73 6.43 1.1 10.23 1.1 8.13 0 14.48-2.66 19.07-7.97 4.63-5.37 6.95-13.75 6.95-25.16ZM1551.69 761.73l-50.94 119.46h-15.7l16.25-36.4-34.77-83.06h15.94l26.8 64.7 27.03-64.7h15.39Z"/></svg>
