<svg viewBox="0 0 425 425">
<rect fill="#FFFFFF" x=".8" y=".8" width="423.5" height="423.3" rx="50"/>
<path fill-rule="evenodd" fill="#f44238" d="m258.2 116.3h47.3c1.8 0 3.3 1.5 3.3 3.4v45.6c0.1 1.9-1.4 3.4-3.3 3.4q0 0 0 0h-13.4c-1.9 0-3.4-1.5-3.4-3.4v-14l-142.4 137.1h29.3c1.9 0 3.4 1.6 3.4 3.4v13.5c0 1.9-1.5 3.4-3.4 3.4h-55.9c-1.8 0-3.3-1.5-3.3-3.4v-16.8l157.8-152h-16c-1.8 0-3.3-1.5-3.3-3.4v-13.4c0-1.9 1.5-3.4 3.3-3.4zm-121.8 49.6c0 1.8-1.5 3.3-3.3 3.4h-13.4c-1.8 0-3.3-1.6-3.3-3.4v-46.2c0-1.9 1.5-3.4 3.3-3.4h106.5c1.9 0 3.4 1.5 3.4 3.4v12.9c0 1.9-1.5 3.4-3.4 3.4h-89.8zm152.3 91.9c0-1.9 1.5-3.4 3.4-3.4h13.4c1.8 0 3.3 1.5 3.3 3.4v47.6c0 1.8-1.5 3.4-3.3 3.4h-98c-1.8 0-3.3-1.6-3.3-3.4v-13.5c0-1.9 1.5-3.4 3.3-3.4h81.2z"/>
</svg>
